<svg id="visual" viewBox="0 0 900 600" width="900" height="600" xmlns="http://www.w3.org/2000/svg" xmlns:xlink="http://www.w3.org/1999/xlink" version="1.1"><rect x="0" y="0" width="900" height="600" fill="#001220"></rect><path d="M0 419L21.5 416.8C43 414.7 86 410.3 128.8 402.7C171.7 395 214.3 384 257.2 386.3C300 388.7 343 404.3 385.8 401C428.7 397.7 471.3 375.3 514.2 367.7C557 360 600 367 642.8 379C685.7 391 728.3 408 771.2 411.2C814 414.3 857 403.7 878.5 398.3L900 393L900 601L878.5 601C857 601 814 601 771.2 601C728.3 601 685.7 601 642.8 601C600 601 557 601 514.2 601C471.3 601 428.7 601 385.8 601C343 601 300 601 257.2 601C214.3 601 171.7 601 128.8 601C86 601 43 601 21.5 601L0 601Z" fill="#7c00ff"></path><path d="M0 469L21.5 469.7C43 470.3 86 471.7 128.8 473.3C171.7 475 214.3 477 257.2 463.7C300 450.3 343 421.7 385.8 415.8C428.7 410 471.3 427 514.2 437C557 447 600 450 642.8 446.8C685.7 443.7 728.3 434.3 771.2 425.8C814 417.3 857 409.7 878.5 405.8L900 402L900 601L878.5 601C857 601 814 601 771.2 601C728.3 601 685.7 601 642.8 601C600 601 557 601 514.2 601C471.3 601 428.7 601 385.8 601C343 601 300 601 257.2 601C214.3 601 171.7 601 128.8 601C86 601 43 601 21.5 601L0 601Z" fill="#5a0ad2"></path><path d="M0 444L21.5 450.7C43 457.3 86 470.7 128.8 473.8C171.7 477 214.3 470 257.2 472.7C300 475.3 343 487.7 385.8 488C428.7 488.3 471.3 476.7 514.2 469.3C557 462 600 459 642.8 466.2C685.7 473.3 728.3 490.7 771.2 489.8C814 489 857 470 878.5 460.5L900 451L900 601L878.5 601C857 601 814 601 771.2 601C728.3 601 685.7 601 642.8 601C600 601 557 601 514.2 601C471.3 601 428.7 601 385.8 601C343 601 300 601 257.2 601C214.3 601 171.7 601 128.8 601C86 601 43 601 21.5 601L0 601Z" fill="#3c0ba5"></path><path d="M0 534L21.5 530C43 526 86 518 128.8 518.8C171.7 519.7 214.3 529.3 257.2 530C300 530.7 343 522.3 385.8 522.3C428.7 522.3 471.3 530.7 514.2 534.3C557 538 600 537 642.8 528C685.7 519 728.3 502 771.2 499.3C814 496.7 857 508.3 878.5 514.2L900 520L900 601L878.5 601C857 601 814 601 771.2 601C728.3 601 685.7 601 642.8 601C600 601 557 601 514.2 601C471.3 601 428.7 601 385.8 601C343 601 300 601 257.2 601C214.3 601 171.7 601 128.8 601C86 601 43 601 21.5 601L0 601Z" fill="#21087a"></path><path d="M0 526L21.5 528.8C43 531.7 86 537.3 128.8 543.8C171.7 550.3 214.3 557.7 257.2 555.3C300 553 343 541 385.8 540.5C428.7 540 471.3 551 514.2 554.3C557 557.7 600 553.3 642.8 555C685.7 556.7 728.3 564.3 771.2 562.3C814 560.3 857 548.7 878.5 542.8L900 537L900 601L878.5 601C857 601 814 601 771.2 601C728.3 601 685.7 601 642.8 601C600 601 557 601 514.2 601C471.3 601 428.7 601 385.8 601C343 601 300 601 257.2 601C214.3 601 171.7 601 128.8 601C86 601 43 601 21.5 601L0 601Z" fill="#0a0351"></path></svg>