<svg id="visual" viewBox="0 0 960 540" width="960" height="540" xmlns="http://www.w3.org/2000/svg" xmlns:xlink="http://www.w3.org/1999/xlink" version="1.1"><rect x="0" y="0" width="960" height="540" fill="#001220"></rect><path d="M0 377L22.8 375C45.7 373 91.3 369 137 362C182.7 355 228.3 345 274 347.2C319.7 349.3 365.3 363.7 411.2 360.7C457 357.7 503 337.3 548.8 330.3C594.7 323.3 640.3 329.7 686 340.7C731.7 351.7 777.3 367.3 823 370.3C868.7 373.3 914.3 363.7 937.2 358.8L960 354L960 541L937.2 541C914.3 541 868.7 541 823 541C777.3 541 731.7 541 686 541C640.3 541 594.7 541 548.8 541C503 541 457 541 411.2 541C365.3 541 319.7 541 274 541C228.3 541 182.7 541 137 541C91.3 541 45.7 541 22.8 541L0 541Z" fill="#7c00ff"></path><path d="M0 422L22.8 422.7C45.7 423.3 91.3 424.7 137 426.2C182.7 427.7 228.3 429.3 274 417.3C319.7 405.3 365.3 379.7 411.2 374.5C457 369.3 503 384.7 548.8 393.7C594.7 402.7 640.3 405.3 686 402.5C731.7 399.7 777.3 391.3 823 383.7C868.7 376 914.3 369 937.2 365.5L960 362L960 541L937.2 541C914.3 541 868.7 541 823 541C777.3 541 731.7 541 686 541C640.3 541 594.7 541 548.8 541C503 541 457 541 411.2 541C365.3 541 319.7 541 274 541C228.3 541 182.7 541 137 541C91.3 541 45.7 541 22.8 541L0 541Z" fill="#5a0ad2"></path><path d="M0 400L22.8 405.8C45.7 411.7 91.3 423.3 137 426.2C182.7 429 228.3 423 274 425.5C319.7 428 365.3 439 411.2 439.2C457 439.3 503 428.7 548.8 422.2C594.7 415.7 640.3 413.3 686 419.8C731.7 426.3 777.3 441.7 823 440.8C868.7 440 914.3 423 937.2 414.5L960 406L960 541L937.2 541C914.3 541 868.7 541 823 541C777.3 541 731.7 541 686 541C640.3 541 594.7 541 548.8 541C503 541 457 541 411.2 541C365.3 541 319.7 541 274 541C228.3 541 182.7 541 137 541C91.3 541 45.7 541 22.8 541L0 541Z" fill="#3c0ba5"></path><path d="M0 480L22.8 476.5C45.7 473 91.3 466 137 466.8C182.7 467.7 228.3 476.3 274 477C319.7 477.7 365.3 470.3 411.2 470.3C457 470.3 503 477.7 548.8 480.8C594.7 484 640.3 483 686 474.8C731.7 466.7 777.3 451.3 823 449C868.7 446.7 914.3 457.3 937.2 462.7L960 468L960 541L937.2 541C914.3 541 868.7 541 823 541C777.3 541 731.7 541 686 541C640.3 541 594.7 541 548.8 541C503 541 457 541 411.2 541C365.3 541 319.7 541 274 541C228.3 541 182.7 541 137 541C91.3 541 45.7 541 22.8 541L0 541Z" fill="#21087a"></path><path d="M0 473L22.8 475.7C45.7 478.3 91.3 483.7 137 489.7C182.7 495.7 228.3 502.3 274 500.2C319.7 498 365.3 487 411.2 486.3C457 485.7 503 495.3 548.8 498.3C594.7 501.3 640.3 497.7 686 499.3C731.7 501 777.3 508 823 506.2C868.7 504.3 914.3 493.7 937.2 488.3L960 483L960 541L937.2 541C914.3 541 868.7 541 823 541C777.3 541 731.7 541 686 541C640.3 541 594.7 541 548.8 541C503 541 457 541 411.2 541C365.3 541 319.7 541 274 541C228.3 541 182.7 541 137 541C91.3 541 45.7 541 22.8 541L0 541Z" fill="#0a0351"></path></svg>